<?xml version="1.0" encoding="UTF-8"?>
<svg version="1.1" xmlns="http://www.w3.org/2000/svg" width="512" height="512">
<path d="M0 0 C2.00332418 -0.02531741 4.0066046 -0.05432552 6.00982666 -0.08673096 C11.43616285 -0.16177415 16.8611907 -0.1789411 22.28799248 -0.18087816 C26.83015336 -0.18647338 31.37202254 -0.21714349 35.91408014 -0.24668825 C46.64145522 -0.31471747 57.36814359 -0.33232376 68.09570312 -0.32128906 C79.1289054 -0.31105975 90.15846843 -0.3970727 101.19080496 -0.52906477 C110.68859764 -0.63858894 120.18521336 -0.68174103 129.68363047 -0.67403352 C135.34540015 -0.67045189 141.00406315 -0.69246823 146.66520691 -0.78099442 C185.64457431 -1.34750998 185.64457431 -1.34750998 195.30850983 7.21860695 C197.89773251 10.06274612 200.08980053 12.95639031 202.08215332 16.24470901 C203.89969039 19.20721207 206.11413861 21.67880552 208.40039062 24.29150391 C209.07714844 25.15517578 209.75390625 26.01884766 210.45117188 26.90869141 C212.24584038 29.17524997 214.12884141 31.29184435 216.08789062 33.41650391 C230.1207083 49.06420933 242.72021324 66.90454403 253.12353516 85.16113281 C253.98501642 86.67244875 254.85395441 88.17952515 255.72802734 89.68359375 C279.5416541 130.80194632 294.1539802 179.40955735 282.21289062 226.66650391 C275.25027601 252.48806859 261.57805046 273.9783935 243.33789062 293.29150391 C242.5928125 294.10103516 241.84773438 294.91056641 241.08007812 295.74462891 C217.10073628 320.91106689 181.10359639 336.48605387 146.47961426 337.57809448 C138.97560273 337.72644535 131.47237424 337.73943069 123.96722126 337.72741199 C120.9362742 337.72427865 117.90537196 337.73045805 114.87443137 337.73645073 C107.70758932 337.75040582 100.54086668 337.74901173 93.37402344 337.73754883 C86.04740296 337.72608733 78.72114942 337.74013081 71.39457726 337.7669453 C65.04315422 337.78929703 58.69184467 337.79569613 52.3403852 337.78986889 C48.57390269 337.7865428 44.80765476 337.78861633 41.04120636 337.80611992 C-3.74512209 337.99416105 -42.01105744 326.82468816 -74.66210938 295.29150391 C-75.45230469 294.55287109 -76.2425 293.81423828 -77.05664062 293.05322266 C-102.98591808 268.21379224 -118.80520027 231.97551165 -119.78710938 196.20947266 C-120.82266384 140.16085295 -93.10191166 89.4741994 -59.66210938 46.29150391 C-58.96601562 45.39173828 -58.26992187 44.49197266 -57.55273438 43.56494141 C-48.96150425 32.66614947 -39.91903853 21.79520238 -30.15630341 11.91809654 C-28.56815502 10.2601921 -28.56815502 10.2601921 -27.1049881 8.07404518 C-19.78965203 -1.16235051 -10.83221749 -0.03813908 0 0 Z M-0.66210938 75.29150391 C-1.33628906 75.90251953 -2.01046875 76.51353516 -2.70507812 77.14306641 C-24.1182908 97.23130983 -35.72102538 127.7940094 -36.78710938 156.67822266 C-37.16845091 179.48721301 -32.0040597 200.49132673 -20.66210938 220.29150391 C-20.31809082 220.89687988 -19.97407227 221.50225586 -19.61962891 222.12597656 C-14.12641201 231.61938217 -7.42310031 239.57247845 0.33789062 247.29150391 C1.16160156 248.11521484 1.9853125 248.93892578 2.83398438 249.78759766 C26.533084 272.2414244 57.88846461 281.34502891 89.88085938 280.63916016 C121.18239544 279.3478503 150.11554843 264.61875229 171.68164062 242.29150391 C193.92142251 217.74195238 204.59579465 186.25504024 203.33789062 153.29150391 C201.13201151 120.98604854 186.00562132 91.56703121 162.14013672 69.84375 C114.59553288 28.89433369 44.08439694 32.47705745 -0.66210938 75.29150391 Z " fill="#B967FF" transform="translate(172.662109375,163.70849609375)"/>
<path d="M0 0 C16.0039758 14.34627498 28.0501649 35.60630203 29.35571289 57.40917969 C30.32662778 83.99132078 24.0026325 107.26489133 5.90234375 127.36914062 C-9.47437612 143.72029052 -31.22418378 154.06636893 -53.78515625 155.05664062 C-54.5225 155.09660156 -55.25984375 155.1365625 -56.01953125 155.17773438 C-79.61264039 155.83309852 -102.62089679 147.19734333 -119.78515625 131.05664062 C-136.35872217 114.85412469 -146.71517295 93.37823306 -147.02661133 70.06201172 C-147.09643372 45.50447884 -140.27082921 24.64565807 -123.78515625 6.05664062 C-123.181875 5.35796875 -122.57859375 4.65929687 -121.95703125 3.93945312 C-90.18838928 -30.45355492 -34.21817255 -29.38485568 0 0 Z M-65.78515625 11.05664062 C-66.25669656 12.66657412 -66.66685146 14.29500148 -67.03515625 15.93164062 C-68.23055921 20.63174773 -68.23055921 20.63174773 -70.72265625 22.54101562 C-72.28335562 23.31082004 -73.85414343 24.06045554 -75.43359375 24.79101562 C-80.59632619 27.5696291 -83.73832168 32.33442892 -86.72265625 37.24414062 C-89.00373149 45.4291753 -88.91250874 53.6095147 -84.90234375 61.20117188 C-80.94757825 67.76940129 -75.20621807 72.19418994 -67.875 74.71289062 C-65.03511961 75.18001114 -62.2230465 75.21356441 -59.34765625 75.30664062 C-55.16192594 75.62644923 -53.11193103 75.85934265 -49.47265625 78.05664062 C-47.18527322 82.12309935 -47.1865348 85.49001414 -47.78515625 90.05664062 C-48.28015625 91.54164063 -48.28015625 91.54164063 -48.78515625 93.05664062 C-55.63566022 95.65983213 -62.03554046 96.0724264 -68.78515625 93.05664062 C-69.77515625 92.19039063 -70.76515625 91.32414062 -71.78515625 90.43164062 C-74.56481515 87.84972846 -74.56481515 87.84972846 -77.84765625 87.49414062 C-81.54365999 88.20188602 -83.20648693 89.33061877 -85.78515625 92.05664062 C-87.04457342 94.3522253 -87.04457342 94.3522253 -86.78515625 97.05664062 C-84.23676077 103.15062981 -80.47757305 106.75102568 -74.78515625 110.05664062 C-72.42874328 110.98411767 -70.27643255 111.53762473 -67.78515625 112.05664062 C-67.66140625 113.91289062 -67.66140625 113.91289062 -67.53515625 115.80664062 C-67.15324575 118.76252328 -66.83774537 119.98067856 -65.09765625 122.49414062 C-62.19212507 124.45733737 -60.2933598 124.98504463 -56.78515625 125.05664062 C-53.19771328 123.67058312 -52.07711876 122.69617755 -50.47265625 119.18164062 C-49.84720726 116.33869068 -49.61488156 113.95131035 -49.78515625 111.05664062 C-49.08390625 110.97414063 -48.38265625 110.89164062 -47.66015625 110.80664062 C-39.81785945 108.76082407 -34.91107072 102.59983141 -30.91015625 95.93164062 C-28.35032258 89.1258553 -28.70270187 80.77378713 -31.47265625 74.11914062 C-35.27577942 66.89584765 -40.03387162 61.81968358 -47.78515625 59.05664062 C-51.20361752 58.40978562 -54.64445533 58.03558771 -58.11254883 57.77636719 C-62.41601236 57.4213774 -65.32035424 56.67478049 -68.78515625 54.05664062 C-70.51031256 50.60632801 -70.28193549 46.82947758 -69.78515625 43.05664062 C-67.58684261 40.02448388 -66.33552431 39.24009665 -62.78515625 38.05664062 C-57.82290066 37.65705825 -53.20609153 37.54746114 -48.78515625 40.05664062 C-47.33109375 41.35601562 -47.33109375 41.35601562 -45.84765625 42.68164062 C-43.00637356 45.24672573 -43.00637356 45.24672573 -39.72265625 45.68164062 C-35.75798078 44.83809265 -34.27974758 43.1926983 -31.78515625 40.05664062 C-30.62749775 38.17706818 -30.62749775 38.17706818 -30.78515625 36.05664062 C-32.67688486 30.61792086 -36.02602823 27.12967758 -40.78515625 24.05664062 C-43.73047271 22.80640295 -46.68916653 21.8569645 -49.78515625 21.05664062 C-49.86765625 19.81914062 -49.95015625 18.58164062 -50.03515625 17.30664062 C-50.41706675 14.35075797 -50.73256713 13.13260269 -52.47265625 10.61914062 C-57.24041394 7.39768272 -61.50263666 7.00560858 -65.78515625 11.05664062 Z " fill="#B56BFF" transform="translate(314.78515625,257.943359375)"/>
<path d="M0 0 C1.55750977 -0.0309375 1.55750977 -0.0309375 3.14648438 -0.0625 C15.2022525 -0.1229678 25.62190707 3.11318926 34.625 11.37109375 C39.55236871 16.58075962 43.4631278 22.24113285 47.04321289 28.42773438 C49.54290121 32.59960349 51.95461292 35.06836972 56.3125 37.25 C62.93028011 38.27760561 68.85121859 35.63047576 75 33.4375 C105.1789003 22.81437341 105.1789003 22.81437341 117.125 26 C119.67969194 27.45982396 120.74716433 28.77118232 122.3125 31.25 C124.16229523 40.62846181 116.9835805 50.64194443 112.3125 58.25 C110.45533337 60.98197099 108.5444135 63.60072903 106.48126221 66.17971802 C104.79552479 68.56618953 103.6012799 70.60546532 102.36932373 73.20822144 C97.12209662 83.84069976 97.12209662 83.84069976 92.44602966 86.18622589 C87.09243518 87.68491208 81.58754682 87.42987387 76.078125 87.3203125 C74.24059198 87.34202316 72.40312868 87.37052862 70.5657959 87.40527344 C65.59718226 87.47794777 60.63390845 87.45007143 55.66520691 87.39920807 C50.45407266 87.35854954 45.24337981 87.39630815 40.03222656 87.42138672 C31.28237203 87.45045495 22.53468172 87.41225132 13.78515625 87.3359375 C3.68481663 87.24885621 -6.41035609 87.27706539 -16.51057053 87.36515999 C-25.19920287 87.43789424 -33.88628425 87.44795614 -42.57512283 87.40614128 C-47.7572824 87.38126077 -52.9370172 87.37767824 -58.11901855 87.4307251 C-62.9937524 87.4771456 -67.86186419 87.444587 -72.73588562 87.35241699 C-74.5182955 87.33135762 -76.30126839 87.33717883 -78.08345032 87.37261963 C-91.17045589 87.60877139 -91.17045589 87.60877139 -95.35472107 83.68761444 C-98.40588264 79.84957404 -100.57980645 75.66108339 -102.67073822 71.24587631 C-104.24865643 68.14846487 -106.24617938 65.48031769 -108.3125 62.6875 C-123.2187208 41.3095392 -123.2187208 41.3095392 -121.6875 31.25 C-120.059527 28.29553048 -118.99037023 26.85490404 -115.9375 25.4375 C-99.68620889 24.08322574 -82.60735651 29.75065132 -67.5625 35.5625 C-63.42216112 37.0971188 -60.14614957 37.94939601 -55.6875 37.25 C-50.41554431 34.365345 -47.90916026 31.0963357 -44.875 26.125 C-37.08555934 14.05224351 -28.94068426 4.18777965 -14.32202148 0.68286133 C-9.57272357 -0.09746535 -4.80275526 0.0234138 0 0 Z " fill="#84A6FF" transform="translate(255.6875,10.75)"/>
<path d="M0 0 C0.83969052 -0.00453111 1.67938105 -0.00906223 2.54451674 -0.01373065 C5.36263452 -0.02640685 8.18055984 -0.0247522 10.998703 -0.02310181 C13.01746876 -0.02908507 15.03623223 -0.03589015 17.05499268 -0.04345703 C22.54266632 -0.06114548 28.03027761 -0.06581363 33.517977 -0.0670886 C38.09798457 -0.06898665 42.67797759 -0.07634316 47.25797957 -0.08343279 C58.06381414 -0.09972543 68.86961538 -0.10460098 79.67546082 -0.10317993 C90.82378457 -0.10197849 101.97191473 -0.12307886 113.12018949 -0.15466726 C122.68973636 -0.18081655 132.25921996 -0.19154778 141.82880229 -0.19026911 C147.54504394 -0.18975905 153.26111363 -0.19546658 158.97731972 -0.21662521 C164.35440519 -0.23598461 169.73115425 -0.23614765 175.10825157 -0.22159195 C177.08070237 -0.21949986 179.0531741 -0.22422853 181.02558899 -0.23631287 C183.72082393 -0.25175479 186.4148974 -0.24246429 189.11010742 -0.22705078 C189.8885244 -0.23733791 190.66694138 -0.24762503 191.46894675 -0.25822389 C196.98601602 -0.18862133 200.18423876 1.13753912 204.74552917 4.26742554 C209.06502324 9.04160319 209.99485898 13.98431441 209.74552917 20.26742554 C208.02397702 26.10157451 205.13900884 29.95736924 200.10085678 33.38700962 C196.61419985 34.69031378 193.17057035 34.55288792 189.49778748 34.5415802 C188.65880252 34.54681688 187.81981756 34.55205356 186.95540881 34.55744892 C184.13963269 34.57246963 181.32403795 34.57315453 178.50822449 34.57382202 C176.49108065 34.58144218 174.47393973 34.58986943 172.45680237 34.5990448 C166.97320031 34.62101246 161.48965401 34.62979191 156.00601292 34.63487124 C152.58001352 34.63851253 149.15402879 34.64475144 145.72803497 34.65187263 C133.7755265 34.67637625 121.82306148 34.68942074 109.87052917 34.69296265 C98.73013875 34.69659729 87.59002395 34.72648537 76.44971776 34.76836723 C66.88525041 34.80306381 57.32087442 34.81851099 47.75634456 34.81920868 C42.0439374 34.82000179 36.33181082 34.82875611 30.61946869 34.85720634 C25.24479101 34.88337545 19.87062675 34.88559837 14.49591446 34.8695507 C12.52548987 34.86773524 10.55503584 34.87443573 8.58467484 34.89036942 C5.889579 34.91083138 3.19627925 34.90027793 0.50120544 34.88215637 C-0.27429869 34.89535634 -1.04980283 34.90855631 -1.8488071 34.92215627 C-7.73467553 34.83207261 -11.65104189 32.89556055 -16.25447083 29.26742554 C-19.98350731 25.05722306 -20.39124117 19.72969109 -20.25447083 14.26742554 C-18.53276707 8.43276281 -15.64750458 4.57863696 -10.610219 1.14742088 C-7.12092026 -0.15601498 -3.67510104 -0.01449803 0 0 Z " fill="#9196FF" transform="translate(161.2544708251953,113.73257446289063)"/>
</svg>
